<svg width="24" height="24" viewBox="0 0 24 24" fill="none" xmlns="http://www.w3.org/2000/svg">
<path d="M10.1251 19.8751C12.1201 19.8771 14.0671 19.2632 15.7001 18.1171C15.7482 18.0834 15.8067 18.0678 15.8652 18.0729C15.9237 18.078 15.9785 18.1036 16.0201 18.1451L21.0611 23.1861C21.3425 23.4675 21.7241 23.6256 22.1221 23.6256C22.52 23.6256 22.9017 23.4675 23.1831 23.1861C23.4645 22.9047 23.6226 22.5231 23.6226 22.1251C23.6226 21.7272 23.4645 21.3455 23.1831 21.0641L18.1411 16.0241C18.0995 15.9825 18.074 15.9276 18.0691 15.8691C18.0642 15.8105 18.0801 15.7521 18.1141 15.7041C19.362 13.9149 19.9737 11.7588 19.8512 9.58084C19.7287 7.40286 18.8792 5.32893 17.4385 3.69093C15.9978 2.05293 14.0493 0.945548 11.9048 0.546003C9.7603 0.146458 7.54375 0.477846 5.60986 1.48713C3.67598 2.49642 2.13656 4.12526 1.23796 6.113C0.339366 8.10073 0.133534 10.3325 0.653406 12.451C1.17328 14.5696 2.3888 16.4525 4.10546 17.7985C5.82211 19.1445 7.94066 19.8757 10.1221 19.8751H10.1251ZM11.4421 11.6831L8.07208 10.4241C7.61175 10.2043 7.22786 9.85162 6.96993 9.41153C6.71201 8.97143 6.59189 8.46414 6.62508 7.95512C6.62075 7.32304 6.85336 6.71228 7.27707 6.24322C7.70077 5.77417 8.28482 5.48086 8.91408 5.42112C8.9729 5.41183 9.02648 5.38184 9.06516 5.33656C9.10385 5.29128 9.12509 5.23367 9.12508 5.17412V4.50012C9.12508 4.2349 9.23044 3.98055 9.41797 3.79301C9.60551 3.60547 9.85986 3.50012 10.1251 3.50012C10.3903 3.50012 10.6446 3.60547 10.8322 3.79301C11.0197 3.98055 11.1251 4.2349 11.1251 4.50012V5.12512C11.1249 5.15798 11.1313 5.19055 11.1438 5.22094C11.1564 5.25133 11.1748 5.27895 11.198 5.30219C11.2212 5.32543 11.2489 5.34384 11.2793 5.35636C11.3096 5.36887 11.3422 5.37525 11.3751 5.37512H12.6251C12.8903 5.37512 13.1446 5.48047 13.3322 5.66801C13.5197 5.85555 13.6251 6.1099 13.6251 6.37512C13.6251 6.64033 13.5197 6.89469 13.3322 7.08222C13.1446 7.26976 12.8903 7.37512 12.6251 7.37512H9.50008C8.62508 7.37512 8.62508 7.81212 8.62508 7.95512C8.6092 8.17463 8.6743 8.39235 8.80808 8.56712L12.1781 9.82712C12.6392 10.0469 13.0237 10.4002 13.2818 10.8412C13.5398 11.2821 13.6594 11.7904 13.6251 12.3001C13.6294 12.9322 13.3968 13.543 12.9731 14.012C12.5494 14.4811 11.9653 14.7744 11.3361 14.8341C11.2773 14.8434 11.2237 14.8734 11.185 14.9187C11.1463 14.964 11.1251 15.0216 11.1251 15.0811V15.7541C11.1251 16.0193 11.0197 16.2737 10.8322 16.4612C10.6446 16.6488 10.3903 16.7541 10.1251 16.7541C9.85986 16.7541 9.60551 16.6488 9.41797 16.4612C9.23044 16.2737 9.12508 16.0193 9.12508 15.7541V15.1291C9.12508 15.0628 9.09874 14.9992 9.05186 14.9523C9.00497 14.9055 8.94138 14.8791 8.87508 14.8791H7.62508C7.35986 14.8791 7.10551 14.7738 6.91797 14.5862C6.73044 14.3987 6.62508 14.1443 6.62508 13.8791C6.62508 13.6139 6.73044 13.3595 6.91797 13.172C7.10551 12.9845 7.35986 12.8791 7.62508 12.8791H10.7501C11.6251 12.8791 11.6251 12.4431 11.6251 12.3001C11.6422 12.0789 11.577 11.8592 11.4421 11.6831Z" fill="#5CBC8E"/>
</svg>
