<svg width="24" height="24" viewBox="0 0 24 24" fill="none" xmlns="http://www.w3.org/2000/svg">
<g clip-path="url(#clip0_47_721)">
<path d="M10.3461 23.0001C10.4102 22.741 10.3689 22.467 10.2313 22.2383C10.0937 22.0096 9.871 21.8448 9.61205 21.7801C7.55668 21.2715 5.7161 20.1229 4.35605 18.5001C4.32565 18.4636 4.30628 18.4192 4.3002 18.372C4.29413 18.3249 4.3016 18.2771 4.32174 18.234C4.34189 18.191 4.37387 18.1546 4.41395 18.1291C4.45403 18.1036 4.50055 18.0901 4.54805 18.0901H7.26705C7.31658 18.0901 7.36498 18.1049 7.4061 18.1325C7.44723 18.1601 7.47923 18.1992 7.49805 18.2451C7.75805 18.8764 8.05405 19.5071 8.38605 20.1371C8.51262 20.3698 8.72577 20.5432 8.97934 20.6199C9.2329 20.6965 9.50645 20.6701 9.74071 20.5465C9.97497 20.4228 10.1511 20.2119 10.2309 19.9593C10.3107 19.7067 10.2878 19.4329 10.1671 19.1971C9.96239 18.8057 9.77339 18.4164 9.60005 18.0291C9.58002 17.9846 9.57341 17.9353 9.58105 17.8871C9.58869 17.839 9.61024 17.7941 9.64305 17.7581C9.77547 17.6141 9.86304 17.4346 9.89504 17.2417C9.92705 17.0487 9.9021 16.8506 9.82326 16.6716C9.74442 16.4926 9.6151 16.3404 9.45113 16.2338C9.28716 16.1271 9.09566 16.0706 8.90005 16.0711C8.88321 16.0711 8.86679 16.0657 8.85315 16.0559C8.8395 16.046 8.82932 16.0321 8.82405 16.0161C8.49005 14.9782 8.26484 13.9085 8.15205 12.8241C8.1484 12.7892 8.15212 12.754 8.16299 12.7208C8.17386 12.6875 8.19162 12.6569 8.21511 12.6309C8.23861 12.605 8.26731 12.5843 8.29935 12.5702C8.33139 12.5561 8.36605 12.5489 8.40105 12.5491H12.0421C12.1769 12.5533 12.3112 12.5304 12.4371 12.4818C12.5629 12.4331 12.6776 12.3596 12.7745 12.2657C12.8714 12.1719 12.9485 12.0595 13.0011 11.9352C13.0537 11.811 13.0808 11.6775 13.0808 11.5426C13.0808 11.4076 13.0537 11.2741 13.0011 11.1499C12.9485 11.0256 12.8714 10.9133 12.7745 10.8194C12.6776 10.7255 12.5629 10.652 12.4371 10.6034C12.3112 10.5547 12.1769 10.5318 12.0421 10.5361H8.37805C8.34338 10.5362 8.30906 10.5291 8.27727 10.5152C8.24549 10.5014 8.21693 10.4811 8.19342 10.4556C8.16991 10.4301 8.15195 10.4 8.1407 10.3672C8.12945 10.3344 8.12514 10.2996 8.12805 10.2651C8.20188 9.3964 8.36166 8.53719 8.60505 7.70006C8.62005 7.64805 8.6516 7.60234 8.6949 7.56986C8.73821 7.53738 8.79092 7.5199 8.84505 7.52006H15.2451C15.2991 7.52006 15.3518 7.5376 15.3951 7.57006C15.4383 7.60252 15.4699 7.64813 15.4851 7.70006C15.759 8.64514 15.9267 9.61782 15.9851 10.6001C16.0003 10.8553 16.1122 11.0952 16.2979 11.2709C16.4837 11.4466 16.7294 11.545 16.9851 11.5461H17.0461C17.1781 11.5382 17.3073 11.5043 17.4263 11.4465C17.5453 11.3886 17.6517 11.3079 17.7394 11.2089C17.8272 11.1099 17.8946 10.9945 17.9378 10.8695C17.9809 10.7444 17.999 10.6121 17.9911 10.4801C17.9381 9.58473 17.8072 8.6957 17.6001 7.82306C17.5911 7.78633 17.5906 7.74802 17.5988 7.71109C17.6069 7.67416 17.6234 7.6396 17.6471 7.61006C17.6703 7.57901 17.7005 7.55381 17.7353 7.53645C17.77 7.5191 17.8082 7.51006 17.8471 7.51006H20.8471C20.8938 7.51004 20.9395 7.52315 20.9791 7.54791C21.0188 7.57266 21.0506 7.60806 21.0711 7.65006C21.5458 8.61775 21.8596 9.65638 22.0001 10.7251C22.0172 10.8564 22.06 10.983 22.1261 11.0978C22.1922 11.2126 22.2802 11.3132 22.3852 11.3939C22.4902 11.4747 22.6101 11.534 22.7379 11.5684C22.8658 11.6028 22.9992 11.6117 23.1306 11.5946C23.2619 11.5774 23.3885 11.5346 23.5033 11.4685C23.6181 11.4024 23.7187 11.3144 23.7994 11.2094C23.8802 11.1044 23.9395 10.9846 23.9739 10.8567C24.0083 10.7288 24.0172 10.5954 24.0001 10.4641C23.6043 7.48295 22.108 4.7576 19.8052 2.82356C17.5023 0.889523 14.5594 -0.113376 11.5548 0.0119381C8.55013 0.137252 5.70096 1.38172 3.56716 3.5008C1.43335 5.61988 0.169177 8.46035 0.0230541 11.4641C0.0230541 11.4701 0.00905406 11.7721 0.00905406 12.0441C0.00405071 14.7305 0.899306 17.3412 2.55187 19.4593C4.20444 21.5773 6.51903 23.0806 9.12605 23.7291C9.20589 23.7488 9.28781 23.7589 9.37005 23.7591C9.59397 23.7591 9.8115 23.6844 9.98825 23.547C10.165 23.4095 10.2909 23.2171 10.3461 23.0001ZM6.66105 15.7581C6.67103 15.795 6.67224 15.8338 6.6646 15.8713C6.65696 15.9088 6.64068 15.944 6.61705 15.9741C6.59377 16.0051 6.56357 16.0303 6.52886 16.0477C6.49414 16.065 6.45586 16.0741 6.41705 16.0741H3.01705C2.96775 16.0742 2.91952 16.0597 2.87842 16.0325C2.83732 16.0053 2.80518 15.9665 2.78605 15.9211C2.37422 14.934 2.12304 13.8875 2.04205 12.8211C2.03943 12.7867 2.04396 12.7521 2.05534 12.7195C2.06673 12.687 2.08472 12.6571 2.10821 12.6319C2.13169 12.6066 2.16014 12.5865 2.19178 12.5727C2.22342 12.559 2.25756 12.552 2.29205 12.5521H5.90005C5.9626 12.5521 6.02283 12.5757 6.06878 12.6181C6.11473 12.6606 6.14303 12.7187 6.14805 12.7811C6.23274 13.7863 6.40438 14.7824 6.66105 15.7581ZM6.12705 10.3001C6.12274 10.3631 6.09461 10.4222 6.04838 10.4652C6.00214 10.5083 5.94125 10.5322 5.87805 10.5321H2.42205C2.3854 10.5321 2.34918 10.5241 2.31599 10.5085C2.28281 10.493 2.25346 10.4703 2.23005 10.4421C2.20634 10.4141 2.18918 10.3811 2.17984 10.3457C2.1705 10.3102 2.1692 10.2731 2.17605 10.2371C2.33971 9.34067 2.62536 8.47092 3.02505 7.65206C3.04567 7.60998 3.0777 7.57455 3.11748 7.5498C3.15726 7.52504 3.2032 7.51197 3.25005 7.51206H6.26505C6.30289 7.51194 6.34025 7.5204 6.37434 7.53681C6.40843 7.55323 6.43834 7.57716 6.46183 7.60682C6.48533 7.63647 6.50178 7.67107 6.50996 7.70801C6.51814 7.74495 6.51783 7.78326 6.50905 7.82006C6.31419 8.6349 6.18643 9.46435 6.12705 10.3001ZM9.86205 5.50006C9.81897 5.50027 9.77657 5.48929 9.739 5.46821C9.70143 5.44712 9.66997 5.41665 9.6477 5.37977C9.62543 5.34289 9.61311 5.30086 9.61194 5.25779C9.61078 5.21472 9.62081 5.17209 9.64105 5.13406C10.2202 4.04392 10.925 3.02532 11.7411 2.09906C11.764 2.07243 11.7924 2.05098 11.8243 2.03616C11.8562 2.02133 11.8909 2.01346 11.9261 2.01306H12.1681C12.2032 2.01352 12.2379 2.02142 12.2698 2.03624C12.3017 2.05107 12.33 2.07247 12.3531 2.09906C13.1688 3.02554 13.8736 4.0441 14.4531 5.13406C14.473 5.1722 14.4828 5.21486 14.4815 5.2579C14.4801 5.30094 14.4677 5.3429 14.4453 5.37971C14.423 5.41653 14.3916 5.44695 14.354 5.46804C14.3165 5.48912 14.2741 5.50015 14.2311 5.50006H9.86205ZM19.2621 5.07606C19.2962 5.11129 19.3192 5.1558 19.3283 5.20403C19.3373 5.25226 19.3319 5.30209 19.3129 5.34729C19.2938 5.3925 19.2618 5.43109 19.2209 5.45826C19.1801 5.48542 19.1321 5.49996 19.0831 5.50006H17.0101C16.9611 5.50014 16.9133 5.48589 16.8724 5.45905C16.8315 5.43221 16.7994 5.39397 16.7801 5.34906C16.4569 4.59491 16.0768 3.86647 15.6431 3.17006C15.6151 3.12495 15.6021 3.0721 15.6062 3.01916C15.6102 2.96622 15.631 2.91594 15.6656 2.87562C15.7001 2.83529 15.7466 2.807 15.7983 2.79486C15.85 2.78271 15.9042 2.78734 15.9531 2.80806C17.1946 3.33662 18.318 4.10808 19.2571 5.07706L19.2621 5.07606ZM8.14805 2.80006C8.19681 2.77959 8.25081 2.77512 8.30227 2.78727C8.35374 2.79943 8.40002 2.82759 8.43447 2.86771C8.46892 2.90783 8.48977 2.95784 8.494 3.01055C8.49824 3.06326 8.48565 3.11595 8.45805 3.16106C8.02642 3.86115 7.64769 4.59252 7.32505 5.34906C7.30613 5.39327 7.27482 5.43105 7.23489 5.45785C7.19497 5.48464 7.14813 5.4993 7.10005 5.50006H5.01205C4.96298 5.50023 4.91495 5.4859 4.87399 5.45887C4.83303 5.43183 4.80098 5.39329 4.78185 5.3481C4.76273 5.3029 4.75739 5.25306 4.76649 5.20484C4.7756 5.15662 4.79876 5.11216 4.83305 5.07706C5.77325 4.10233 6.90085 3.32781 8.14805 2.80006Z" fill="#5CBC8E"/>
<path d="M20.9 22.3001C20.1309 22.3001 19.3932 21.9946 18.8494 21.4507C18.3055 20.9069 18 20.1692 18 19.4001C18 18.631 18.3055 17.8934 18.8494 17.3495C19.3932 16.8056 20.1309 16.5001 20.9 16.5001H23.3C23.317 16.5 23.3338 16.4959 23.3489 16.488C23.364 16.4802 23.3771 16.4689 23.387 16.4551C23.3976 16.441 23.4046 16.4245 23.4072 16.407C23.4098 16.3896 23.408 16.3717 23.402 16.3551C23.2885 16.0163 23.0849 15.7149 22.813 15.4831C22.7718 15.4478 22.743 15.4001 22.731 15.3471C22.7178 15.2867 22.697 15.2282 22.669 15.1731L21.155 12.1781C21.0688 12.0035 20.9488 11.8478 20.8018 11.72C20.6548 11.5923 20.4839 11.4951 20.299 11.4341C20.1036 11.3702 19.8971 11.3472 19.6924 11.3665C19.4876 11.3857 19.2891 11.4469 19.109 11.5461L19.087 11.5591L13.668 15.0161C13.6418 15.0331 13.6126 15.045 13.582 15.0511C13.1373 15.1379 12.7364 15.3764 12.4479 15.7258C12.1594 16.0753 12.0011 16.514 12 16.9671V22.0481C12.0024 22.5677 12.2109 23.0651 12.5797 23.4311C12.9485 23.797 13.4474 24.0017 13.967 24.0001H21.533C21.976 24.0008 22.4063 23.8519 22.754 23.5774C23.1018 23.303 23.3467 22.9192 23.449 22.4881C23.4543 22.4657 23.4544 22.4423 23.4494 22.4198C23.4444 22.3973 23.4343 22.3762 23.42 22.3581C23.4056 22.34 23.3874 22.3254 23.3666 22.3154C23.3458 22.3053 23.3231 22.3001 23.3 22.3001H20.9ZM19.581 13.0001C19.6106 12.9813 19.6438 12.969 19.6785 12.9638C19.7131 12.9587 19.7485 12.9609 19.7823 12.9704C19.816 12.9798 19.8474 12.9962 19.8744 13.0186C19.9014 13.0409 19.9234 13.0687 19.939 13.1001L20.724 14.6521C20.7433 14.6902 20.7525 14.7327 20.7508 14.7753C20.749 14.818 20.7364 14.8596 20.714 14.896C20.6916 14.9324 20.6603 14.9624 20.623 14.9833C20.5857 15.0042 20.5437 15.0151 20.501 15.0151H17.3C17.2458 15.0153 17.193 14.9979 17.1496 14.9655C17.1061 14.9331 17.0744 14.8874 17.0592 14.8354C17.0439 14.7834 17.046 14.7278 17.0651 14.6771C17.0842 14.6263 17.1193 14.5832 17.165 14.5541L19.581 13.0001Z" fill="#5CBC8E"/>
<path d="M24 18.2C24 18.0143 23.9263 17.8363 23.795 17.705C23.6637 17.5737 23.4857 17.5 23.3 17.5H20.9C20.3961 17.5 19.9128 17.7002 19.5565 18.0565C19.2002 18.4128 19 18.8961 19 19.4C19 19.9039 19.2002 20.3872 19.5565 20.7435C19.9128 21.0998 20.3961 21.3 20.9 21.3H23.3C23.4857 21.3 23.6637 21.2262 23.795 21.095C23.9263 20.9637 24 20.7857 24 20.6V18.2ZM21.25 20C21.1017 20 20.9567 19.956 20.8333 19.8736C20.71 19.7912 20.6139 19.6741 20.5571 19.537C20.5003 19.4 20.4855 19.2492 20.5144 19.1037C20.5434 18.9582 20.6148 18.8246 20.7197 18.7197C20.8246 18.6148 20.9582 18.5434 21.1037 18.5144C21.2492 18.4855 21.4 18.5003 21.537 18.5571C21.6741 18.6139 21.7912 18.71 21.8736 18.8333C21.956 18.9567 22 19.1017 22 19.25C22 19.4489 21.921 19.6397 21.7803 19.7803C21.6397 19.921 21.4489 20 21.25 20Z" fill="#5CBC8E"/>
</g>
<defs>
<clipPath id="clip0_47_721">
<rect width="24" height="24" fill="white"/>
</clipPath>
</defs>
</svg>
