<svg width="24" height="24" viewBox="0 0 24 24" fill="none" xmlns="http://www.w3.org/2000/svg">
<path d="M3.5 1.5V8.5C3.5 8.89782 3.65804 9.27936 3.93934 9.56066C4.22064 9.84196 4.60218 10 5 10H11.25C11.3163 10 11.3799 10.0263 11.4268 10.0732C11.4737 10.1201 11.5 10.1837 11.5 10.25V12.5C11.5 12.5989 11.5294 12.6957 11.5844 12.7779C11.6394 12.8601 11.7176 12.9242 11.809 12.962C11.8695 12.9872 11.9344 13.0002 12 13C12.0658 13 12.1309 12.987 12.1916 12.9618C12.2524 12.9365 12.3076 12.8996 12.354 12.853L15.134 10.07C15.1814 10.0241 15.2451 9.99897 15.311 10H19C19.3978 10 19.7794 9.84196 20.0607 9.56066C20.342 9.27936 20.5 8.89782 20.5 8.5V1.5C20.5 1.10218 20.342 0.720644 20.0607 0.43934C19.7794 0.158035 19.3978 0 19 0L5 0C4.60218 0 4.22064 0.158035 3.93934 0.43934C3.65804 0.720644 3.5 1.10218 3.5 1.5ZM13.083 5.625H10.917C10.6927 5.625 10.4706 5.58082 10.2634 5.49499C10.0562 5.40915 9.86786 5.28334 9.70926 5.12474C9.55066 4.96614 9.42485 4.77785 9.33901 4.57062C9.25318 4.3634 9.209 4.1413 9.209 3.917C9.209 3.6927 9.25318 3.4706 9.33901 3.26338C9.42485 3.05615 9.55066 2.86786 9.70926 2.70926C9.86786 2.55066 10.0562 2.42485 10.2634 2.33901C10.4706 2.25318 10.6927 2.209 10.917 2.209H11.125C11.1913 2.209 11.2549 2.18266 11.3018 2.13578C11.3487 2.08889 11.375 2.0253 11.375 1.959V1.75C11.375 1.58424 11.4408 1.42527 11.5581 1.30806C11.6753 1.19085 11.8342 1.125 12 1.125C12.1658 1.125 12.3247 1.19085 12.4419 1.30806C12.5592 1.42527 12.625 1.58424 12.625 1.75V1.959C12.625 2.0253 12.6513 2.08889 12.6982 2.13578C12.7451 2.18266 12.8087 2.209 12.875 2.209H14.167C14.3328 2.209 14.4917 2.27485 14.6089 2.39206C14.7262 2.50927 14.792 2.66824 14.792 2.834C14.792 2.99976 14.7262 3.15873 14.6089 3.27594C14.4917 3.39315 14.3328 3.459 14.167 3.459H10.917C10.8569 3.459 10.7973 3.47085 10.7417 3.49386C10.6862 3.51688 10.6357 3.55062 10.5931 3.59315C10.5506 3.63567 10.5169 3.68616 10.4939 3.74173C10.4708 3.7973 10.459 3.85685 10.459 3.917C10.459 3.97715 10.4708 4.0367 10.4939 4.09227C10.5169 4.14784 10.5506 4.19833 10.5931 4.24085C10.6357 4.28338 10.6862 4.31712 10.7417 4.34014C10.7973 4.36315 10.8569 4.375 10.917 4.375H13.083C13.3108 4.36949 13.5375 4.4096 13.7496 4.49298C13.9617 4.57637 14.155 4.70133 14.3181 4.86053C14.4812 5.01972 14.6108 5.20993 14.6993 5.41996C14.7878 5.62999 14.8333 5.85559 14.8333 6.0835C14.8333 6.31141 14.7878 6.53701 14.6993 6.74704C14.6108 6.95707 14.4812 7.14728 14.3181 7.30647C14.155 7.46567 13.9617 7.59063 13.7496 7.67402C13.5375 7.7574 13.3108 7.79751 13.083 7.792H12.875C12.8421 7.79187 12.8096 7.79824 12.7792 7.81076C12.7488 7.82328 12.7212 7.84169 12.6979 7.86493C12.6747 7.88817 12.6563 7.91578 12.6438 7.94617C12.6312 7.97656 12.6249 8.00913 12.625 8.042V8.25C12.625 8.41576 12.5592 8.57473 12.4419 8.69194C12.3247 8.80915 12.1658 8.875 12 8.875C11.8342 8.875 11.6753 8.80915 11.5581 8.69194C11.4408 8.57473 11.375 8.41576 11.375 8.25V8.042C11.3751 8.00913 11.3688 7.97656 11.3562 7.94617C11.3437 7.91578 11.3253 7.88817 11.3021 7.86493C11.2788 7.84169 11.2512 7.82328 11.2208 7.81076C11.1904 7.79824 11.1579 7.79187 11.125 7.792H9.833C9.66724 7.792 9.50827 7.72615 9.39106 7.60894C9.27385 7.49173 9.208 7.33276 9.208 7.167C9.208 7.00124 9.27385 6.84227 9.39106 6.72506C9.50827 6.60785 9.66724 6.542 9.833 6.542H13.083C13.145 6.5449 13.207 6.53518 13.2651 6.51345C13.3233 6.49171 13.3764 6.45841 13.4213 6.41555C13.4662 6.37269 13.502 6.32116 13.5264 6.26409C13.5508 6.20702 13.5634 6.14558 13.5634 6.0835C13.5634 6.02142 13.5508 5.95999 13.5264 5.90291C13.502 5.84584 13.4662 5.79431 13.4213 5.75145C13.3764 5.70859 13.3233 5.67529 13.2651 5.65355C13.207 5.63182 13.145 5.6221 13.083 5.625Z" fill="#5CBC8E"/>
<path d="M4.176 20.775L0.824 22.032C0.728807 22.0678 0.646794 22.1318 0.588904 22.2154C0.531014 22.299 0.5 22.3983 0.5 22.5V23.5C0.5 23.6326 0.552678 23.7598 0.646447 23.8536C0.740215 23.9473 0.867392 24 1 24H23C23.1326 24 23.2598 23.9473 23.3536 23.8536C23.4473 23.7598 23.5 23.6326 23.5 23.5V22.5C23.5 22.3983 23.469 22.299 23.4111 22.2154C23.3532 22.1318 23.2712 22.0678 23.176 22.032L19.824 20.775C19.729 20.7393 19.6471 20.6754 19.5892 20.592C19.5313 20.5086 19.5002 20.4095 19.5 20.308V19.377C19.4986 19.2639 19.5368 19.1539 19.608 19.066C20.4627 18.0694 20.9535 16.8121 21 15.5C21 13.055 19.676 11.521 17.545 11.5C16.956 11.5079 16.3791 11.6677 15.8698 11.9637C15.3606 12.2597 14.9363 12.6821 14.638 13.19C13.072 15.898 14.821 18.376 15.395 19.071C15.465 19.1574 15.5022 19.2658 15.5 19.377V20.308C15.4998 20.4095 15.4687 20.5086 15.4108 20.592C15.3529 20.6754 15.271 20.7393 15.176 20.775L12.088 21.934C12.031 21.954 11.969 21.954 11.912 21.934L8.824 20.775C8.72897 20.7393 8.64707 20.6754 8.58919 20.592C8.53131 20.5086 8.5002 20.4095 8.5 20.308V19.377C8.49855 19.2639 8.53677 19.1539 8.608 19.066C9.46268 18.0694 9.95349 16.8121 10 15.5C10 13.055 8.676 11.521 6.545 11.5C5.95705 11.5128 5.38196 11.6745 4.87355 11.9701C4.36514 12.2657 3.94002 12.6854 3.638 13.19C2.072 15.898 3.821 18.376 4.395 19.071C4.46503 19.1574 4.50223 19.2658 4.5 19.377V20.308C4.4998 20.4095 4.46869 20.5086 4.41081 20.592C4.35294 20.6754 4.27103 20.7393 4.176 20.775Z" fill="#5CBC8E"/>
</svg>
