<svg width="253" height="60" viewBox="0 0 253 60" fill="none" xmlns="http://www.w3.org/2000/svg">
<path d="M50.7809 12L64.2851 48.1212H56.0646L53.3314 40.0763H39.8272L37.0168 48.1212H29L42.6588 12H50.7809ZM51.2376 34.1604L46.7058 20.9021H46.6074L41.8999 34.1533L51.2376 34.1604Z" fill="#465569"/>
<path d="M73.461 21.9701V25.6026H73.6155C74.429 24.171 75.6526 23.0159 77.1286 22.2862C78.5161 21.6083 80.0389 21.2528 81.5832 21.2464C83.1959 21.1935 84.8031 21.461 86.3117 22.0333C87.4555 22.4917 88.4587 23.2428 89.2205 24.2114C89.9616 25.2161 90.4704 26.3728 90.7101 27.598C91.0084 29.0543 91.152 30.538 91.1387 32.0244V48.1142H83.9861V33.3313C83.9861 31.1719 83.6488 29.5606 82.9743 28.4973C82.2998 27.434 81.103 26.9024 79.384 26.9024C77.426 26.9024 76.0208 27.4832 75.1683 28.6449C74.3158 29.8065 73.8779 31.72 73.8544 34.3852V48.0931H66.6316V21.9701H73.461Z" fill="#465569"/>
<path d="M120.67 50.0464C120.364 51.4315 119.73 52.7229 118.822 53.8124C117.704 55.1024 116.302 56.115 114.725 56.7704C112.442 57.67 109.997 58.0839 107.545 57.9859C106.224 57.9821 104.908 57.8217 103.624 57.5081C102.34 57.2073 101.111 56.7046 99.9847 56.0186C98.8986 55.354 97.9668 54.4653 97.2515 53.4119C96.5015 52.273 96.0742 50.9521 96.0149 49.5897H103.146C103.252 50.1731 103.484 50.7266 103.825 51.2118C104.166 51.6971 104.608 52.1025 105.121 52.4001C106.167 52.9398 107.331 53.2102 108.507 53.1871C110.531 53.1871 112.006 52.5805 112.934 51.3673C113.898 50.0336 114.372 48.408 114.276 46.7652V43.3224H114.177C113.434 44.6764 112.27 45.7516 110.861 46.3858C109.442 47.0391 107.898 47.3748 106.336 47.3694C104.593 47.4138 102.862 47.058 101.277 46.3296C99.9002 45.6846 98.696 44.7212 97.7644 43.5191C96.8257 42.2605 96.1473 40.8274 95.769 39.3035C95.3395 37.6423 95.1269 35.9324 95.1366 34.2166C95.1218 32.5626 95.3587 30.9161 95.8393 29.3334C96.2945 27.831 97.0234 26.4256 97.9892 25.188C98.9356 23.9879 100.135 23.0115 101.502 22.3284C103.007 21.5961 104.664 21.2324 106.336 21.2675C107.899 21.2346 109.447 21.564 110.861 22.23C112.248 22.9588 113.383 24.0872 114.121 25.4691H114.22V21.956H121.049V46.442C121.047 47.6533 120.92 48.8612 120.67 50.0464V50.0464ZM110.833 41.3481C111.588 40.9616 112.247 40.4091 112.758 39.7321C113.273 39.0387 113.659 38.258 113.896 37.4275C114.152 36.5487 114.28 35.6377 114.276 34.7224C114.282 33.6936 114.18 32.6669 113.974 31.6591C113.793 30.7525 113.451 29.886 112.962 29.1016C112.496 28.3654 111.853 27.7569 111.093 27.331C110.187 26.861 109.176 26.6334 108.156 26.6705C107.25 26.644 106.352 26.8521 105.549 27.2748C104.826 27.6781 104.204 28.2402 103.73 28.9189C103.229 29.6364 102.869 30.4422 102.669 31.2937C102.445 32.2137 102.334 33.1574 102.338 34.1041C102.339 35.048 102.433 35.9894 102.619 36.9146C102.789 37.799 103.115 38.646 103.582 39.4159C104.034 40.1527 104.649 40.7754 105.381 41.2357C106.229 41.7377 107.206 41.9818 108.191 41.9383C109.107 41.9539 110.013 41.749 110.833 41.3411L110.833 41.3481Z" fill="#465569"/>
<path d="M133.935 41.8469C135.013 42.8915 136.563 43.4137 138.586 43.4137C139.918 43.4487 141.227 43.068 142.331 42.3247C143.217 41.7985 143.896 40.9853 144.257 40.0201H150.58C149.568 43.1584 148.018 45.4021 145.929 46.7511C143.651 48.1517 141.013 48.8551 138.341 48.7747C136.44 48.8036 134.551 48.4698 132.776 47.791C131.18 47.1771 129.741 46.2173 128.56 44.9806C127.389 43.7261 126.485 42.2463 125.904 40.6314C125.264 38.847 124.947 36.9625 124.97 35.0667C124.963 33.2017 125.299 31.3513 125.961 29.6074C126.559 27.9812 127.485 26.4953 128.682 25.242C129.878 23.9886 131.32 22.9945 132.916 22.3214C134.637 21.5968 136.488 21.2356 138.355 21.2604C140.37 21.2135 142.366 21.6571 144.172 22.5532C145.779 23.3762 147.172 24.5622 148.24 26.0171C149.321 27.5064 150.104 29.1908 150.545 30.9775C151.02 32.8777 151.191 34.8414 151.051 36.7951H132.165C132.268 39.1184 132.858 40.8024 133.935 41.8469V41.8469ZM142.057 28.0898C141.195 27.153 139.889 26.6846 138.137 26.6846C137.151 26.6507 136.171 26.8505 135.277 27.2677C134.574 27.6117 133.954 28.1029 133.457 28.7081C133.021 29.2436 132.694 29.8595 132.495 30.5208C132.324 31.0812 132.213 31.6583 132.165 32.2422H143.849C143.647 30.719 143.027 29.2815 142.057 28.0898H142.057Z" fill="#465569"/>
<path d="M162.046 12V48.1212H154.859V12H162.046Z" fill="#465569"/>
<path d="M175.712 12V41.4394H193.312V48.1142H167.772V12H175.712Z" fill="#465569"/>
<path d="M196.291 17.923V12.007H203.472V17.923H196.291ZM203.472 21.97V48.1212H196.291V21.97H203.472Z" fill="#465569"/>
<path d="M214.679 41.6221C214.986 42.162 215.408 42.6274 215.916 42.9852C216.444 43.3506 217.035 43.6172 217.658 43.7721C218.329 43.9427 219.018 44.0277 219.71 44.025C220.246 44.0227 220.781 43.9638 221.305 43.8494C221.835 43.7414 222.347 43.5543 222.822 43.2943C223.272 43.0463 223.661 42.7005 223.961 42.2826C224.279 41.8133 224.439 41.2544 224.417 40.6876C224.417 39.6103 223.701 38.7999 222.267 38.2566C220.311 37.5746 218.308 37.0346 216.274 36.6406C215.229 36.4064 214.208 36.1277 213.211 35.8045C212.27 35.5105 211.376 35.0847 210.555 34.5398C209.792 34.0297 209.153 33.3551 208.686 32.5654C208.191 31.6781 207.948 30.6722 207.983 29.6566C207.923 28.2106 208.264 26.7762 208.967 25.5112C209.604 24.4507 210.501 23.5704 211.574 22.9537C212.703 22.3119 213.934 21.8675 215.213 21.6399C216.58 21.3855 217.968 21.2584 219.358 21.2604C220.743 21.2581 222.125 21.3947 223.483 21.668C224.743 21.9091 225.952 22.3705 227.052 23.031C228.102 23.6765 228.993 24.5508 229.659 25.5885C230.397 26.8051 230.822 28.1861 230.895 29.6075H224.066C224.082 29.0412 223.946 28.4811 223.67 27.9863C223.394 27.4916 222.989 27.0806 222.499 26.797C221.459 26.2982 220.314 26.0572 219.162 26.0944C218.723 26.097 218.284 26.1228 217.848 26.1717C217.403 26.2154 216.967 26.3267 216.555 26.5019C216.178 26.6576 215.841 26.898 215.571 27.2045C215.284 27.5724 215.14 28.0314 215.164 28.4973C215.155 28.7946 215.213 29.0901 215.335 29.3615C215.457 29.6328 215.639 29.8731 215.866 30.0642C216.413 30.508 217.041 30.842 217.714 31.0478C218.569 31.3327 219.439 31.5673 220.321 31.7504C221.3 31.9518 222.295 32.172 223.307 32.4109C224.342 32.6432 225.365 32.9293 226.37 33.2681C227.317 33.582 228.212 34.0342 229.026 34.6101C229.796 35.1674 230.434 35.8869 230.895 36.7179C231.393 37.66 231.636 38.7163 231.598 39.7813C231.654 41.1879 231.336 42.5842 230.675 43.8273C230.015 45.0705 229.036 46.1159 227.839 46.8566C226.669 47.5868 225.372 48.092 224.017 48.3461C222.575 48.6331 221.109 48.7767 219.639 48.7747C218.143 48.7765 216.65 48.6235 215.185 48.318C213.815 48.0462 212.504 47.5323 211.314 46.8004C210.171 46.0942 209.209 45.132 208.503 43.9899C207.731 42.66 207.321 41.1505 207.316 39.6126H214.145C214.139 40.3183 214.324 41.0124 214.679 41.6221V41.6221Z" fill="#465569"/>
<path d="M249.81 21.97V26.7759H244.547V39.725C244.547 40.9382 244.751 41.7485 245.159 42.156C245.566 42.5636 246.377 42.765 247.59 42.7603C247.997 42.7603 248.384 42.7603 248.756 42.7111C249.112 42.6788 249.466 42.6272 249.817 42.5565V48.1212C249.147 48.2291 248.471 48.2972 247.793 48.325C247.049 48.3578 246.323 48.3741 245.615 48.3741C244.557 48.3787 243.5 48.3035 242.454 48.1493C241.53 48.021 240.639 47.7207 239.826 47.264C239.062 46.823 238.439 46.1751 238.027 45.3951C237.547 44.4026 237.32 43.3067 237.367 42.2052V26.7478H233.018V21.9419H237.367V14.1289H244.547V21.97L249.81 21.97Z" fill="#465569"/>
<path d="M23.1186 27.5094C24.5421 27.7746 25.5441 28.3658 26.1246 29.283C26.705 30.2002 26.9968 31.6477 27 33.6257C27 37.5487 25.8043 40.759 23.4128 43.2563C21.0214 45.7537 17.9632 47.0016 14.2384 47C12.7783 47.0009 11.3306 46.736 9.96797 46.2185C8.64604 45.732 7.43609 44.9898 6.40925 44.0355C5.35745 43.1173 4.48989 42.0125 3.85172 40.7785C3.29718 39.689 3.00567 38.4878 3 37.2687C3 35.9304 3.29181 34.8954 3.87544 34.1638C4.45907 33.4322 5.38118 32.93 6.64175 32.657C6.44048 32.2081 6.26619 31.7479 6.11981 31.2788C6.02626 30.9995 5.97042 30.7092 5.95374 30.4154C5.95374 29.7151 6.32859 28.9991 7.07829 28.2675C7.828 27.5359 8.5342 27.1701 9.19692 27.1701C9.50288 27.1739 9.80633 27.2252 10.0961 27.3222C10.4755 27.453 10.8403 27.6215 11.1851 27.8253C9.96876 24.4326 9.08462 21.8135 8.53262 19.9682C7.98063 18.1229 7.70542 16.8516 7.707 16.1543C7.707 15.1888 7.95927 14.4221 8.46382 13.8543C8.7218 13.5709 9.04033 13.3475 9.39644 13.2003C9.75255 13.053 10.1374 12.9855 10.5231 13.0026C12.0067 13.0026 13.8834 16.2713 16.153 22.8087C16.5469 23.9287 16.8466 24.7929 17.0522 25.4012C17.2262 24.9192 17.4705 24.2345 17.7853 23.3469C20.0629 16.8703 22.0217 13.632 23.6619 13.632C24.0238 13.6171 24.3845 13.6816 24.718 13.8208C25.0515 13.96 25.3496 14.1704 25.5907 14.4369C26.0652 14.9735 26.3025 15.6934 26.3025 16.5966C26.3025 17.2813 26.0384 18.5339 25.5101 20.3543C24.9818 22.1747 24.1847 24.5597 23.1186 27.5094V27.5094ZM6.16726 37.0348C6.38869 37.2999 6.69632 37.6899 7.09015 38.2047C8.13246 39.621 9.0949 40.3292 9.97746 40.3292C10.2706 40.3311 10.5551 40.2318 10.7817 40.0484C10.8822 39.9846 10.9665 39.8988 11.0282 39.7979C11.0899 39.6969 11.1273 39.5833 11.1376 39.4658C11.1376 39.2318 10.9794 38.8419 10.6631 38.2959C10.2761 37.6502 9.84069 37.0339 9.36062 36.4522C8.88591 35.8301 8.35894 35.2485 7.78529 34.7137C7.36773 34.3487 7.03242 34.1662 6.77936 34.1662C6.22736 34.1662 5.71807 34.4579 5.25148 35.0412C4.78448 35.6301 4.53808 36.3599 4.55397 37.1073C4.57197 37.8428 4.73305 38.568 5.02847 39.2435C5.38873 40.0922 5.8627 40.8893 6.43772 41.6138C7.34357 42.8225 8.53399 43.7958 9.90629 44.4496C11.3383 45.1197 12.9074 45.4559 14.4923 45.4323C15.9542 45.4579 17.404 45.167 18.7395 44.58C20.075 43.993 21.2637 43.1242 22.2218 42.0349C24.297 39.77 25.3345 36.9334 25.3345 33.5251C25.3555 32.6896 25.2759 31.8547 25.0973 31.0378C24.9961 30.5169 24.7214 30.0442 24.3167 29.6948C23.6698 29.166 22.4108 28.691 20.5397 28.2698C18.6165 27.8441 16.6508 27.633 14.6797 27.6404C14.1119 27.6404 13.7094 27.734 13.4721 27.9212C13.2349 28.1084 13.1163 28.4274 13.1163 28.8782C13.1163 29.9373 13.7157 30.704 14.9146 31.1782C16.1135 31.6524 18.055 31.8864 20.739 31.8802H21.7094C21.8107 31.8756 21.9116 31.8943 22.0043 31.9349C22.097 31.9756 22.1788 32.0369 22.2432 32.1142C22.3981 32.3311 22.4923 32.5845 22.516 32.8488C22.2471 33.0984 21.6936 33.3823 20.8553 33.7005C20.1805 33.9355 19.5369 34.2498 18.9383 34.6365C18.0219 35.3005 17.2498 36.1391 16.6679 37.1026C16.1373 37.8994 15.8386 38.8244 15.8043 39.777C15.8272 40.4107 15.9513 41.0369 16.172 41.6325C16.3429 42.0659 16.4662 42.5162 16.5397 42.9755V43.1393L16.4923 43.3499C15.7979 43.3031 15.2499 42.9022 14.8482 42.1472C14.4464 41.3923 14.2456 40.3846 14.2456 39.1242V38.9136C14.1371 39.0114 14.0128 39.0905 13.8778 39.1476C13.7531 39.1955 13.6202 39.2194 13.4864 39.2178C13.3511 39.2185 13.2161 39.2067 13.083 39.1827C12.9389 39.1551 12.7963 39.12 12.656 39.0774C12.7021 39.2428 12.7378 39.4108 12.7627 39.5805C12.7834 39.7082 12.7952 39.8372 12.7983 39.9665C12.8 40.2481 12.7396 40.5266 12.6212 40.7828C12.5028 41.0389 12.3293 41.2666 12.1127 41.45C11.6693 41.8566 11.0834 42.0779 10.478 42.0677C9.48319 42.0677 8.4733 41.5888 7.44839 40.6311C6.42348 39.6733 5.91023 38.7374 5.90865 37.8233C5.90627 37.6692 5.92624 37.5155 5.96796 37.367C6.00408 37.2391 6.07267 37.1223 6.16725 37.0277L6.16726 37.0348ZM13.2705 37.594C13.412 37.5897 13.551 37.555 13.6776 37.4924C13.8042 37.4297 13.9154 37.3406 14.0036 37.2313C14.2114 37.0222 14.3302 36.7426 14.3357 36.4498C14.3357 36.155 14.119 35.4663 13.6856 34.3838C13.2386 33.2775 12.6957 32.2112 12.0629 31.1969C11.6895 30.5437 11.2184 29.9497 10.6655 29.4351C10.2068 29.0389 9.77264 28.8408 9.36299 28.8408C9.03084 28.8408 8.6639 29.0467 8.26216 29.4585C7.86042 29.8703 7.65955 30.2556 7.65955 30.6143C7.65955 30.9871 7.85646 31.5471 8.2503 32.2943C8.7059 33.1336 9.2371 33.9308 9.83748 34.6762C10.4092 35.4621 11.0681 36.1825 11.8019 36.8242C12.4172 37.3327 12.9067 37.587 13.2705 37.587V37.594ZM15.5907 26.3161L13.0332 19.0253C12.3705 17.1737 11.8573 15.9632 11.4935 15.3939C11.1297 14.8245 10.7343 14.5406 10.3072 14.5422C10.154 14.5393 10.0022 14.5716 9.86384 14.6366C9.72548 14.7016 9.60436 14.7974 9.51008 14.9166C9.29168 15.2054 9.18258 15.5605 9.20166 15.9203C9.20166 16.6363 9.47766 17.8842 10.0297 19.664C10.5817 21.4439 11.4104 23.7712 12.516 26.646C12.6025 26.4817 12.7455 26.3531 12.9193 26.2833C13.1478 26.2044 13.3892 26.1687 13.6311 26.1781C13.726 26.1781 13.915 26.1859 14.1981 26.2015C14.4812 26.2171 14.9454 26.2537 15.5907 26.3114V26.3161ZM18.2645 33.3847C17.6176 33.3568 16.9732 33.2865 16.3357 33.1741C15.7432 33.0689 15.1613 32.9123 14.5967 32.7061C14.8482 33.2053 15.0728 33.7037 15.2705 34.2013C15.458 34.6822 15.6164 35.1736 15.745 35.673C16.1077 35.2202 16.5043 34.7948 16.9312 34.4001C17.3459 34.0253 17.7919 33.6856 18.2645 33.3847V33.3847ZM21.4128 27.1046C22.4694 24.2719 23.2942 21.9321 23.8873 20.0852C24.4804 18.2383 24.7762 17.1058 24.7746 16.6878C24.7977 16.3148 24.6933 15.9448 24.4781 15.6372C24.3823 15.515 24.2582 15.4173 24.1162 15.3522C23.9742 15.287 23.8184 15.2564 23.6619 15.2629C23.2206 15.2629 22.7707 15.6248 22.312 16.3485C21.8533 17.0723 21.348 18.236 20.796 19.8395L18.4235 26.5875L21.4128 27.1046Z" fill="#465569"/>
</svg>
