<svg width="142" height="33" viewBox="0 0 142 33" fill="none" xmlns="http://www.w3.org/2000/svg">
<path fill-rule="evenodd" clip-rule="evenodd" d="M55.1751 10.2439C59.7204 10.2439 62.3635 13.1036 62.3635 17.2249L62.3335 19.7624C62.3312 19.7944 62.3169 19.8243 62.2934 19.8461C62.2699 19.8679 62.239 19.8799 62.207 19.8798H51.4282C51.4282 22.8061 52.8998 24.5373 55.7295 24.5373C57.436 24.5373 58.5084 24.0312 59.7008 22.8792C59.7245 22.857 59.7557 22.8446 59.7882 22.8446C59.8207 22.8446 59.8519 22.857 59.8756 22.8792L61.9278 24.7056C61.9401 24.7167 61.9502 24.73 61.9573 24.745C61.9644 24.7599 61.9684 24.7762 61.9691 24.7927C61.9699 24.8092 61.9673 24.8258 61.9615 24.8413C61.9557 24.8568 61.9469 24.871 61.9356 24.8831C61.1348 25.7441 60.1629 26.4284 59.0823 26.8921C58.0017 27.3558 56.8362 27.5887 55.6604 27.5758C51.3316 27.5758 47.9853 25.3645 47.9853 18.8753V18.6718C47.9944 16.9731 48.2123 15.5002 48.7524 14.283C49.907 11.679 52.2488 10.2439 55.1737 10.2439H55.1751ZM59.0602 17.054L59.0563 16.7801C59.0237 15.9947 58.9245 15.6137 58.5919 15.0319C58.0596 14.0704 56.8658 13.4115 55.2729 13.4115C53.6813 13.4115 52.4523 14.0704 51.92 15.0319C51.5873 15.6137 51.5208 15.9934 51.4895 16.7801V17.054H59.0602ZM88.9139 10.2439C93.4605 10.2439 96.1023 13.1036 96.1023 17.2249L96.075 19.7624C96.0726 19.7946 96.0581 19.8247 96.0343 19.8465C96.0106 19.8683 95.9794 19.8803 95.9471 19.8798H85.1696C85.1696 22.8061 86.6399 24.5373 89.4709 24.5373C91.1761 24.5373 92.2498 24.0312 93.4409 22.8792C93.4647 22.8566 93.4962 22.844 93.529 22.844C93.5618 22.844 93.5933 22.8566 93.617 22.8792L95.6679 24.7056C95.6803 24.7167 95.6903 24.73 95.6974 24.745C95.7045 24.7599 95.7085 24.7762 95.7093 24.7927C95.71 24.8092 95.7074 24.8258 95.7016 24.8413C95.6959 24.8568 95.6871 24.871 95.6757 24.8831C94.8751 25.744 93.9034 26.4282 92.8231 26.8918C91.7427 27.3555 90.5774 27.5885 89.4018 27.5758C85.0731 27.5758 81.7254 25.3645 81.7254 18.8753V18.6718C81.7345 16.9731 81.9537 15.5002 82.4925 14.283C83.6471 11.679 85.9889 10.2439 88.9139 10.2439ZM92.7977 17.054V16.7801C92.7664 15.9947 92.666 15.6137 92.3333 15.0319C91.8023 14.0704 90.6073 13.4115 89.0143 13.4115C87.4227 13.4115 86.1937 14.0704 85.6615 15.0319C85.3301 15.6137 85.2648 15.9934 85.2309 16.7801V17.054H92.7977ZM32.8425 10.5701C32.8419 10.5532 32.8447 10.5365 32.8507 10.5208C32.8568 10.5051 32.866 10.4908 32.8778 10.4787C32.8898 10.4663 32.9041 10.4564 32.9201 10.4497C32.936 10.443 32.9531 10.4395 32.9704 10.4396H46.4406C46.4863 10.4396 46.5293 10.4631 46.5515 10.5035C46.5625 10.5229 46.568 10.5449 46.5676 10.5672C46.5671 10.5894 46.5607 10.6112 46.5489 10.6301L38.1667 24.2999H46.4067C46.4771 24.2999 46.5332 24.356 46.5332 24.4251V27.251C46.5332 27.2836 46.5202 27.3162 46.4967 27.3384C46.4848 27.3504 46.4705 27.36 46.4549 27.3665C46.4392 27.373 46.4224 27.3763 46.4054 27.3762H32.5503C32.5277 27.3762 32.5055 27.3702 32.4859 27.3587C32.4664 27.3473 32.4504 27.3308 32.4394 27.311C32.4285 27.2919 32.4228 27.2702 32.4231 27.2482C32.4233 27.2262 32.4294 27.2046 32.4407 27.1857L40.8607 13.5211H32.9704C32.9535 13.5214 32.9367 13.5183 32.9211 13.512C32.9054 13.5057 32.8911 13.4964 32.8791 13.4846C32.8674 13.473 32.8581 13.4591 32.8519 13.4439C32.8456 13.4287 32.8424 13.4123 32.8425 13.3959V10.5701ZM123.224 6.08216C123.241 6.08163 123.257 6.08449 123.273 6.09056C123.289 6.09664 123.303 6.1058 123.315 6.1175C123.327 6.1292 123.336 6.1432 123.343 6.15865C123.349 6.1741 123.352 6.19069 123.352 6.20741V10.4461H126.713C126.783 10.4461 126.839 10.5009 126.839 10.5701V13.3985C126.839 13.415 126.836 13.4314 126.83 13.4467C126.823 13.462 126.814 13.4759 126.802 13.4875C126.79 13.4992 126.776 13.5084 126.761 13.5146C126.746 13.5208 126.729 13.5239 126.713 13.5237H123.352V21.461C123.352 23.418 124.196 24.2764 125.869 24.3521C126.037 24.3612 126.206 24.3612 126.375 24.3521C126.408 24.3505 126.441 24.3623 126.466 24.3847C126.492 24.4069 126.507 24.4369 126.509 24.4708V27.3618C126.509 27.3944 126.497 27.4257 126.474 27.4491C126.451 27.4724 126.42 27.4861 126.388 27.4871C126.218 27.4962 126.03 27.4962 125.725 27.4962C122.757 27.4962 120.046 26.0559 120.046 22.3795V13.5224H117.785C117.769 13.5226 117.752 13.5195 117.737 13.5133C117.721 13.507 117.708 13.4978 117.696 13.4862C117.684 13.4746 117.675 13.4607 117.668 13.4454C117.662 13.4301 117.659 13.4137 117.659 13.3972V10.5688C117.659 10.4996 117.715 10.4448 117.785 10.4448H120.046V6.2061C120.046 6.13696 120.103 6.08086 120.173 6.08086H123.225L123.224 6.08216ZM139.696 18.8401C140.949 19.7089 141.531 20.9027 141.441 22.6417C141.266 26.0024 138.15 27.5784 134.856 27.5784C132.283 27.5784 129.768 26.5934 128.282 24.9431C128.261 24.9183 128.25 24.886 128.252 24.8532C128.254 24.8205 128.269 24.7899 128.294 24.7683L130.321 22.9614C130.346 22.9396 130.378 22.9282 130.411 22.9294C130.443 22.9306 130.474 22.9444 130.497 22.9679C131.626 24.1042 133.023 24.6704 134.642 24.6704C136.042 24.6704 138.12 24.1486 138.161 22.4526C138.205 20.7109 135.925 20.6143 134.641 20.386C132.758 20.0521 130.843 19.6789 129.621 18.3639C129.198 17.9165 128.882 17.3796 128.696 16.7931C128.441 15.9353 128.406 15.0272 128.595 14.1526C128.753 13.4014 129.103 12.7044 129.613 12.1304C130.137 11.563 130.779 11.1164 131.493 10.8219C132.521 10.4214 133.616 10.2247 134.719 10.2426C135.551 10.2473 136.379 10.3573 137.184 10.5701C137.909 10.7788 138.6 11.0893 139.234 11.4924C139.768 11.8355 140.239 12.2635 140.63 12.7579C140.641 12.77 140.649 12.784 140.653 12.7993C140.658 12.8145 140.66 12.8305 140.658 12.8464C140.657 12.8622 140.652 12.8776 140.644 12.8916C140.637 12.9055 140.626 12.9177 140.613 12.9275L138.542 14.7736C138.53 14.7853 138.516 14.7945 138.5 14.8006C138.485 14.8067 138.468 14.8095 138.452 14.8089C138.435 14.8083 138.419 14.8042 138.404 14.797C138.389 14.7898 138.375 14.7796 138.364 14.767C137.484 13.8225 136.246 13.4585 135.264 13.375C134.414 13.3019 133.511 13.3306 132.649 13.7794C132.381 13.9125 132.155 14.1179 131.998 14.3725C131.84 14.627 131.757 14.9204 131.758 15.2197C131.73 16.2908 132.068 16.8101 134.824 17.2758C136.902 17.6281 138.565 18.0599 139.696 18.8401ZM113.351 7.24197C112.06 7.24197 111.015 6.21002 111.015 4.93801C111.015 3.666 112.06 2.63405 113.351 2.63405C114.641 2.63405 115.686 3.6647 115.686 4.93801C115.686 6.21002 114.641 7.24067 113.351 7.24067V7.24197ZM103.762 10.4461H114.872C114.942 10.4461 114.998 10.5009 114.998 10.5701V27.2588C114.998 27.2753 114.995 27.2917 114.989 27.307C114.982 27.3223 114.973 27.3362 114.961 27.3478C114.95 27.3595 114.936 27.3687 114.92 27.3749C114.905 27.3811 114.888 27.3842 114.872 27.384H111.822C111.789 27.3838 111.757 27.3707 111.733 27.3475C111.721 27.336 111.712 27.3222 111.705 27.307C111.699 27.2917 111.695 27.2754 111.695 27.2588V13.5237H103.754V27.2588C103.753 27.292 103.74 27.3237 103.716 27.3471C103.692 27.3704 103.661 27.3837 103.627 27.384H100.575C100.541 27.3838 100.51 27.3707 100.486 27.3475C100.474 27.336 100.464 27.3222 100.458 27.307C100.451 27.2917 100.448 27.2754 100.448 27.2588V13.5185H97.8962C97.8796 13.5187 97.8632 13.5156 97.8479 13.5094C97.8325 13.5031 97.8186 13.4939 97.8068 13.4823C97.795 13.4706 97.7857 13.4568 97.7793 13.4415C97.7729 13.4262 97.7696 13.4098 97.7696 13.3933V10.5648C97.7716 10.5327 97.7859 10.5024 97.8094 10.4804C97.8329 10.4583 97.8639 10.4461 97.8962 10.4461H100.448V7.80948C100.448 4.39659 102.828 2.53881 106.174 2.53881H106.482C107.196 2.54178 107.909 2.60858 108.611 2.73842C108.639 2.74314 108.665 2.75737 108.684 2.77873C108.703 2.80008 108.714 2.82729 108.715 2.85583V5.66468C108.716 5.68259 108.712 5.70036 108.705 5.71664C108.697 5.73292 108.686 5.74728 108.672 5.75862C108.659 5.77012 108.642 5.77843 108.625 5.78295C108.608 5.78746 108.59 5.78806 108.572 5.78471C107.861 5.69641 107.144 5.65631 106.427 5.66468C105.065 5.69208 103.864 6.36396 103.764 8.10433V10.4461H103.762ZM77.0196 11.7703C78.5682 13.1793 79.0718 14.9888 79.0718 16.8414V27.2444C79.0718 27.261 79.0685 27.2774 79.0622 27.2927C79.0558 27.3079 79.0464 27.3218 79.0347 27.3335C79.0229 27.3451 79.0089 27.3543 78.9936 27.3605C78.9782 27.3667 78.9618 27.3698 78.9453 27.3697H75.8938C75.8772 27.3698 75.8608 27.3667 75.8454 27.3605C75.8301 27.3543 75.8161 27.3451 75.8044 27.3335C75.7926 27.3218 75.7832 27.3079 75.7769 27.2927C75.7705 27.2774 75.7672 27.261 75.7672 27.2444V16.8375C75.7672 15.1832 74.6491 13.8995 73.0392 13.6372C72.0321 13.4715 70.537 13.5381 69.6603 14.0769C68.9414 14.5205 68.2735 15.3045 68.2735 16.1852V27.251C68.2736 27.2674 68.2703 27.2836 68.2638 27.2987C68.2573 27.3137 68.2477 27.3272 68.2356 27.3384C68.2118 27.3624 68.1794 27.376 68.1456 27.3762H65.0928C65.0762 27.3764 65.0598 27.3733 65.0445 27.367C65.0291 27.3608 65.0152 27.3516 65.0034 27.34C64.9916 27.3283 64.9823 27.3145 64.9759 27.2992C64.9695 27.2839 64.9662 27.2675 64.9662 27.251V10.5701C64.9662 10.5009 65.0236 10.4461 65.0928 10.4461H68.1469C68.2174 10.4461 68.2735 10.5009 68.2735 10.5701V11.8003L68.4274 11.6633C68.6387 11.4807 68.8618 11.3111 69.0954 11.1571C70.1978 10.437 71.3197 10.2452 72.6257 10.2452C74.4991 10.2452 75.9342 10.7788 77.0196 11.7703ZM22.2699 5.38028V8.831L0.550537 20.0155V16.5935L9.20148 12.1369L0.550537 9.99603V6.86233L13.3045 10.0234L18.1969 7.5029L0.550537 3.13372V1.52588e-05L22.2699 5.38028ZM0.550537 27.234V23.7807L22.2699 12.5961V16.0247L13.6202 20.48L22.2699 22.6222V25.7533L9.51329 22.5935L4.62096 25.114L22.2699 29.4845V32.6156L0.550537 27.234Z" fill="#FF5745"/>
</svg>
