<svg class="" width="128" height="23" viewBox="0 0 128 23" fill="none" xmlns="http://www.w3.org/2000/svg">
<path d="M25.903 6.37193C21.2615 6.37193 17.6349 9.89539 17.6349 14.6122C17.6349 19.3291 21.1699 22.8224 25.903 22.8224C30.6361 22.8224 34.2326 19.2688 34.2326 14.5821C34.2326 9.92552 30.6976 6.37193 25.903 6.37193ZM25.9343 19.4231C23.2912 19.4231 21.3543 17.3702 21.3543 14.6134C21.3543 11.8253 23.2598 9.7736 25.903 9.7736C28.5775 9.7736 30.5132 11.8566 30.5132 14.6134C30.5132 17.3702 28.5775 19.4231 25.9343 19.4231ZM35.2463 9.95683H37.5518V22.5174H41.2399V6.67812H35.2463V9.95683ZM8.35304 9.77242C10.2899 9.77242 11.8266 10.967 12.41 12.7438H16.3139C15.6064 8.9455 12.4715 6.37193 8.38436 6.37193C3.74287 6.37193 0.116211 9.89539 0.116211 14.6134C0.116211 19.3314 3.65126 22.8236 8.38436 22.8236C12.3798 22.8236 15.5762 20.25 16.2837 16.4203H12.41C11.8568 18.1972 10.32 19.4231 8.38321 19.4231C5.70872 19.4231 3.83449 17.3702 3.83449 14.6134C3.83566 11.8253 5.67973 9.77242 8.35304 9.77242ZM105.323 13.0813L102.618 12.6835C101.328 12.5003 100.406 12.0711 100.406 11.0598C100.406 9.95683 101.605 9.40593 103.233 9.40593C105.016 9.40593 106.154 10.1714 106.399 11.4275H109.965C109.565 8.2415 107.106 6.37307 103.326 6.37307C99.4221 6.37307 96.8405 8.36446 96.8405 11.1827C96.8405 13.8781 98.5313 15.4415 101.942 15.9309L104.647 16.3287C105.969 16.512 106.707 17.0339 106.707 18.0139C106.707 19.27 105.416 19.7907 103.633 19.7907C101.451 19.7907 100.221 18.9023 100.037 17.5546H96.4101C96.7489 20.6489 99.1764 22.8236 103.602 22.8236C107.629 22.8236 110.302 20.9853 110.302 17.8295C110.302 15.0112 108.366 13.5406 105.323 13.0813ZM39.3959 0.153123C38.0436 0.153123 37.029 1.13315 37.029 2.48082C37.029 3.8285 38.0425 4.80852 39.3959 4.80852C40.7482 4.80852 41.7631 3.8285 41.7631 2.48082C41.7631 1.13315 40.7482 0.153123 39.3959 0.153123ZM93.5212 12.1013C93.5212 8.67062 91.4314 6.37307 87.0054 6.37307C82.8255 6.37307 80.4896 8.48739 80.0282 11.7348H83.686C83.8704 10.4787 84.8539 9.43724 86.9441 9.43724C88.8195 9.43724 89.7414 10.2642 89.7414 11.2755C89.7414 12.5931 88.0503 12.9294 85.9605 13.144C83.1329 13.4501 79.6291 14.4301 79.6291 18.1067C79.6291 20.9563 81.7503 22.7934 85.1314 22.7934C87.7743 22.7934 89.434 21.6904 90.2645 19.9438C90.3876 21.506 91.5555 22.5174 93.1849 22.5174H95.3363V19.2398H93.5222V12.1013H93.5212ZM89.8943 16.084C89.8943 18.1983 88.0503 19.7605 85.8061 19.7605C84.4228 19.7605 83.2548 19.1783 83.2548 17.9536C83.2548 16.3914 85.1299 15.9622 86.8513 15.779C88.511 15.6259 89.4329 15.2582 89.8943 14.5531V16.084ZM70.316 6.37193C68.2562 6.37193 66.5352 7.23017 65.3059 8.66948V3.05176e-05H61.6178V22.5174H65.2442V20.4344C66.4735 21.9352 68.2263 22.8236 70.316 22.8236C74.7417 22.8236 78.0924 19.3314 78.0924 14.6134C78.0924 9.89539 74.6803 6.37193 70.316 6.37193ZM69.7629 19.4231C67.1197 19.4231 65.1829 17.3702 65.1829 14.6134C65.1829 11.8566 67.15 9.7736 69.7929 9.7736C72.4675 9.7736 74.3415 11.8264 74.3415 14.6134C74.3415 17.3702 72.4058 19.4231 69.7629 19.4231ZM52.7961 6.37193C50.3989 6.37193 48.8309 7.35195 47.909 8.73092V6.67812H44.2509V22.5162H47.939V13.9083C47.939 11.4878 49.4757 9.77242 51.7502 9.77242C53.8713 9.77242 55.1922 11.2732 55.1922 13.449V22.5174H58.8804V13.1741C58.8818 9.19021 56.8231 6.37193 52.7961 6.37193ZM127.883 14.0927C127.883 9.55902 124.564 6.37307 120.107 6.37307C115.374 6.37307 111.901 9.9267 111.901 14.6134C111.901 19.546 115.62 22.8236 120.169 22.8236C124.011 22.8236 127.023 20.5562 127.791 17.3401H123.948C123.395 18.7492 122.043 19.546 120.229 19.546C117.862 19.546 116.079 18.0754 115.68 15.5018H127.882V14.0927H127.883ZM115.896 12.8668C116.481 10.6608 118.14 9.58919 120.046 9.58919C122.135 9.58919 123.734 10.7838 124.103 12.8668H115.896Z" fill="#0052FF"/>
</svg>
